<?xml version="1.0" encoding="UTF-8"?>
<svg width="48" height="48" viewBox="0 0 48 48" fill="none" xmlns="http://www.w3.org/2000/svg">
  <circle cx="24" cy="24" r="24" fill="#16A34A"/>
  <path d="M24 12C18.4772 12 14 16.4772 14 22C14 27.5228 18.4772 32 24 32C29.5228 32 34 27.5228 34 22C34 16.4772 29.5228 12 24 12ZM24 30C19.5817 30 16 26.4183 16 22C16 17.5817 19.5817 14 24 14C28.4183 14 32 17.5817 32 22C32 26.4183 28.4183 30 24 30Z" fill="white"/>
  <path d="M24 16C20.6863 16 18 18.6863 18 22C18 25.3137 20.6863 28 24 28C27.3137 28 30 25.3137 30 22C30 18.6863 27.3137 16 24 16Z" fill="white"/>
  <path d="M24 20C22.8954 20 22 20.8954 22 22C22 23.1046 22.8954 24 24 24C25.1046 24 26 23.1046 26 22C26 20.8954 25.1046 20 24 20Z" fill="white"/>
</svg> 