<?xml version="1.0" encoding="UTF-8"?>
<svg width="40" height="40" viewBox="0 0 40 40" fill="none" xmlns="http://www.w3.org/2000/svg">
  <circle cx="20" cy="20" r="20" fill="#22C55E"/>
  <path d="M20 10C15.5817 10 12 13.5817 12 18C12 22.4183 15.5817 26 20 26C24.4183 26 28 22.4183 28 18C28 13.5817 24.4183 10 20 10ZM20 24C16.6863 24 14 21.3137 14 18C14 14.6863 16.6863 12 20 12C23.3137 12 26 14.6863 26 18C26 21.3137 23.3137 24 20 24Z" fill="white"/>
  <path d="M20 14C17.7909 14 16 15.7909 16 18C16 20.2091 17.7909 22 20 22C22.2091 22 24 20.2091 24 18C24 15.7909 22.2091 14 20 14Z" fill="white"/>
</svg> 